# xmcd
#
# Track frame offsets:
#	150
#	12457
#	23117
#	34240
#	46907
#	56645
#	69125
#	81353
#	90829
#	101405
#	116141
#	125266
#	136384
#	148130
#	167448
#	180347
#	189958
#	197969
#	210459
#	223042
#	235550
#	245891
#	258755
#	271624
#
# Disc length: 3807 seconds
# Revision: 0
# Processed by: cddbd v1.5.2PL0 Copyright (c) Steve Scherf et al.
# Submitted via: dBpowerAMP V12.0
#
DISCID=450edd18
DTITLE=Various Artist - Big Wide Wonderful World of Country Music CD1
DYEAR=1900
DGENRE=Country
TTITLE0=1.	RUNNING BEAR – SONNY JAMES
TTITLE1=2.	HELLO WALLS – FARON YOUNG
TTITLE2=3.	OH LONESOME ME –DON GIBSON
TTITLE3=4.	NORTH TO ALASKA – ROSE MADDOX
TTITLE4=5.	ROCK ISLAND LINE – JOHNNY CASH
TTITLE5=6.	THE AUCTIONEER – LEROY VAN DYKE
TTITLE6=7.	A WORRIED MIND – JIMMY DAVIS
TTITLE7=8.	CALIFORNIA ZEPHYR – HANK WILLIAMS
TTITLE8=9.	PLEASE HELP ME Im Falling – HANK LOCKLIN
TTITLE9=10.	DIESELINE DREAMS – SLIM DUSTY
TTITLE10=11.	COOL WATER – SLEEPY LABEEF
TTITLE11=12.	COWBOY BOOTS – DAVE DUDLEY
TTITLE12=13.	COUNTRY GIRL – JEANNIE C RILEY
TTITLE13=14.	COWARD OF THE COUNTY – KENNY ROGERS
TTITLE14=15.	THE BALLAD OF DAVY CROCKETT – TENNESSEE ERNIE FORD
TTITLE15=HUMPTY DUMPTY HEART – HANK THOMPSON
TTITLE16=17.	BLUEBERRY HILL – CARL MANN
TTITLE17=18.	CHANGING PARTNERS – PATTI PAGE
TTITLE18=19.	FOLSOM PRISON BLUES – JOHNNY CASH
TTITLE19=20.	I’M WASTIN MY TEARS ON YOU – TEX RITTER
TTITLE20=21.	WINGS OF A DOVE – FERLIN HUSKY
TTITLE21=22.	RUBY (DON’T TAKE YOUR LOVE TO TOWN) – KENNY ROGERS
TTITLE22=23.	WAYWARD WIND – CRYSTAL GAYLE
TTITLE23=24.	REMINISCING – SLIM WHITMAN
EXTD=
EXTT0=
EXTT1=
EXTT2=
EXTT3=
EXTT4=
EXTT5=
EXTT6=
EXTT7=
EXTT8=
EXTT9=
EXTT10=
EXTT11=
EXTT12=
EXTT13=
EXTT14=
EXTT15=
EXTT16=
EXTT17=
EXTT18=
EXTT19=
EXTT20=
EXTT21=
EXTT22=
EXTT23=
PLAYORDER=
